{"accessors" : [{"bufferView" : 0, "byteOffset" : 0, "componentType" : 5123, "count" : 756, "type" : "SCALAR", "max" : [712], "min" : [0]}, {"bufferView" : 1, "byteOffset" : 0, "componentType" : 5126, "count" : 713, "type" : "VEC3", "max" : [1.0551111698150635, 1.010704755783081, 0.9740048050880432], "min" : [-0.9507230520248413, -0.8473123908042908, -0.926125705242157], "name" : "POSITION"}, {"bufferView" : 1, "byteOffset" : 12, "componentType" : 5126, "count" : 713, "type" : "VEC2", "max" : [1, 0.9849395155906677], "min" : [0, 0], "name" : "TEXCOORD_0"}, {"bufferView" : 1, "byteOffset" : 20, "componentType" : 5126, "count" : 713, "type" : "VEC3", "max" : [0.9665758013725281, 0.9980846047401428, 0.9927479028701782], "min" : [-0.9922418594360352, -0.9942920804023743, -0.9962995052337646], "name" : "NORMAL"}, {"bufferView" : 0, "byteOffset" : 1512, "componentType" : 5123, "count" : 96, "type" : "SCALAR", "max" : [95], "min" : [0]}, {"bufferView" : 2, "byteOffset" : 0, "componentType" : 5126, "count" : 96, "type" : "VEC3", "max" : [0.17940235137939453, 0.5844299793243408, 0.19927899539470673], "min" : [-0.19024507701396942, -0.007118507754057646, -0.17679846286773682], "name" : "POSITION"}, {"bufferView" : 2, "byteOffset" : 12, "componentType" : 5126, "count" : 96, "type" : "VEC2", "max" : [0.9928473830223083, 0.9795596599578857], "min" : [0.005344101693481207, -1.1920928955078125E-07], "name" : "TEXCOORD_0"}, {"bufferView" : 2, "byteOffset" : 20, "componentType" : 5126, "count" : 96, "type" : "VEC3", "max" : [0.9767084121704102, 0.9489322304725647, 0.9739810228347778], "min" : [-0.9530095458030701, -0.9996599555015564, -0.973624587059021], "name" : "NORMAL"}, {"bufferView" : 0, "byteOffset" : 1704, "componentType" : 5123, "count" : 2004, "type" : "SCALAR", "max" : [1795], "min" : [0]}, {"bufferView" : 3, "byteOffset" : 0, "componentType" : 5126, "count" : 1796, "type" : "VEC3", "max" : [1.1084494590759277, 1.0765337944030762, 1.0082147121429443], "min" : [-1.0186527967453003, -0.903456449508667, -0.9748537540435791], "name" : "POSITION"}, {"bufferView" : 3, "byteOffset" : 12, "componentType" : 5126, "count" : 1796, "type" : "VEC2", "max" : [1, 0.9849395155906677], "min" : [0.0016513436567038298, 0.003328084945678711], "name" : "TEXCOORD_0"}, {"bufferView" : 3, "byteOffset" : 20, "componentType" : 5126, "count" : 1796, "type" : "VEC3", "max" : [0.995471179485321, 0.9954063296318054, 0.9948675036430359], "min" : [-0.9971041679382324, -0.9985008239746094, -0.9938715696334839], "name" : "NORMAL"}], "asset" : {"generator" : "Aspose.3D 23.2", "version" : "2.0"}, "buffers" : [{"uri" : "data:application/octet-stream;base64,", "byteLength" : 97120}], "bufferViews" : [{"buffer" : 0, "byteOffset" : 0, "byteLength" : 5712, "target" : 34963}, {"buffer" : 0, "byteOffset" : 5716, "byteLength" : 24192, "byteStride" : 32, "target" : 34962}, {"buffer" : 0, "byteOffset" : 29912, "byteLength" : 3072, "byteStride" : 32, "target" : 34962}, {"buffer" : 0, "byteOffset" : 32988, "byteLength" : 64128, "byteStride" : 32, "target" : 34962}], "materials" : [{"name" : "Material.001", "pbrMetallicRoughness" : {"baseColorFactor" : [0.15325994789600372, 0.4769901931285858, 0.04930347576737404, 1], "metallicFactor" : 0, "roughnessFactor" : 0.5}, "emissiveFactor" : [0, 0, 0], "alphaMode" : "OPAQUE", "doubleSided" : true}, {"name" : "Material.003", "pbrMetallicRoughness" : {"baseColorFactor" : [0.6266627311706543, 0.09272564202547073, 0.05227610468864441, 1], "metallicFactor" : 0, "roughnessFactor" : 0.5}, "emissiveFactor" : [0, 0, 0], "alphaMode" : "OPAQUE", "doubleSided" : true}, {"name" : "Material.002", "pbrMetallicRoughness" : {"baseColorFactor" : [0.06684849411249161, 0.4575316309928894, 0.03218090161681175, 1], "metallicFactor" : 0, "roughnessFactor" : 0.5}, "emissiveFactor" : [0, 0, 0], "alphaMode" : "OPAQUE", "doubleSided" : true}], "meshes" : [{"primitives" : [{"attributes" : {"POSITION" : 1, "TEXCOORD_0" : 2, "NORMAL" : 3}, "indices" : 0, "material" : 0, "mode" : 4}]}, {"primitives" : [{"attributes" : {"POSITION" : 5, "TEXCOORD_0" : 6, "NORMAL" : 7}, "indices" : 4, "material" : 1, "mode" : 4}]}, {"primitives" : [{"attributes" : {"POSITION" : 9, "TEXCOORD_0" : 10, "NORMAL" : 11}, "indices" : 8, "material" : 2, "mode" : 4}]}], "nodes" : [{"matrix" : [1, 0, 0, 0, 0, 1, 0, 0, 0, 0, 1, 0, -0.032661598175764084, 1.224810004234314, 0, 1], "mesh" : 0, "name" : "Sphere"}, {"matrix" : [1, 0, 0, 0, 0, 1, 0, 0, 0, 0, 1, 0, 0, 0.15854330360889435, 0, 1], "mesh" : 1, "name" : "Cylinder"}, {"matrix" : [1, 0, 0, 0, 0, 1, 0, 0, 0, 0, 1, 0, -0.032661598175764084, 1.2326855659484863, 0, 1], "mesh" : 2, "name" : "Sphere.001"}], "scene" : 0, "scenes" : [{"nodes" : [0, 1, 2]}]}